<svg width="21" height="16" viewBox="0 0 21 16" fill="none" xmlns="http://www.w3.org/2000/svg">
<path fill-rule="evenodd" clip-rule="evenodd" d="M16.5076 2.49288L16.4704 2.46808C15.7014 1.73634 14.7961 1.38907 13.7543 1.43868L13.7171 1.36426L13.7419 1.35186C14.6844 1.14102 15.2426 0.917778 15.4162 0.66973C15.4658 0.471291 15.4038 0.35967 15.1929 0.334865C14.7217 0.396877 14.2752 0.496096 13.8907 0.657327C14.3868 0.334865 14.5728 0.111622 14.4612 0C13.9775 0.0124024 13.4442 0.26045 12.8985 0.756547C13.0969 0.409279 13.1838 0.210841 13.1341 0.186036C12.8613 0.35967 12.638 0.558108 12.4396 0.768949C12.0179 1.24024 11.6831 1.67432 11.4226 2.0712L11.4102 2.09601C10.7529 3.17501 10.2816 4.25402 10.0087 5.35784L9.90952 5.44465L9.88472 5.45706C9.48784 4.96096 9.00414 4.53928 8.43363 4.20441C7.7639 3.75793 6.97015 3.34865 6.05237 2.93937C5.06018 2.41847 4.04318 1.99679 3.02619 1.66192C3.01378 2.81535 3.58429 3.72072 4.68811 4.39045V4.40285C4.30363 4.40285 3.91916 4.46486 3.54709 4.57649C3.6215 5.64309 4.37805 6.37483 5.80432 6.77171L5.79192 6.79652C5.23381 6.75931 4.77492 6.95775 4.41526 7.36703C4.88655 8.2848 5.71751 8.71889 6.92054 8.69408C6.68489 8.81811 6.49886 8.94213 6.37484 9.09096C6.15159 9.32661 6.07718 9.59946 6.15159 9.90952C6.41204 10.3808 6.87093 10.5917 7.55306 10.5544L7.59027 10.6041L7.57787 10.6289C6.39964 11.8443 4.97336 12.39 3.31144 12.2784L3.28664 12.2908C2.26964 12.2784 1.17823 11.7947 0 10.8273C1.17823 12.5264 2.75333 13.7543 4.70051 14.5356C6.92054 15.2674 9.15297 15.3294 11.373 14.6968H11.4102C13.5682 14.0767 15.3914 12.7869 16.9045 10.8521C17.599 9.84751 18.0331 8.88012 18.2067 7.94994C19.3353 7.98715 20.1415 7.66468 20.65 6.97015L20.6376 6.94535C20.2531 7.08177 19.5214 7.04456 18.4424 6.82132V6.6973C19.633 6.56087 20.3399 6.1764 20.5632 5.54387C19.7322 5.86634 18.9137 5.87874 18.1075 5.56868C17.9587 4.45246 17.4254 3.42306 16.5076 2.49288" fill="#C2D1D9"/>
</svg>
