<svg width="64" height="64" viewBox="0 0 64 64" fill="none" xmlns="http://www.w3.org/2000/svg">
<path d="M48.5067 47.3334H20.1066C17.4666 47.3334 14.9333 46.2134 13.1466 44.2667C11.36 42.3201 10.4533 39.7067 10.6666 37.0667L12.88 10.5067C12.96 9.68005 12.6666 8.88006 12.1066 8.26672C11.5466 7.65339 10.7733 7.33337 9.94664 7.33337H5.33331C4.23998 7.33337 3.33331 6.42671 3.33331 5.33337C3.33331 4.24004 4.23998 3.33337 5.33331 3.33337H9.97333C11.92 3.33337 13.76 4.16003 15.0666 5.57336C15.7866 6.37336 16.32 7.30672 16.6133 8.34672H49.92C52.6133 8.34672 55.0933 9.41337 56.9066 11.3334C58.6933 13.28 59.6 15.8134 59.3867 18.5067L57.9466 38.5067C57.6533 43.3867 53.3867 47.3334 48.5067 47.3334ZM16.7466 12.32L14.6666 37.3867C14.5333 38.9333 15.04 40.4 16.08 41.5467C17.12 42.6933 18.56 43.3067 20.1066 43.3067H48.5067C51.28 43.3067 53.7866 40.9601 54 38.1867L55.44 18.1867C55.5466 16.6134 55.04 15.1201 54 14.0267C52.96 12.9067 51.52 12.2933 49.9466 12.2933H16.7466V12.32Z" fill="#F48809"/>
<path d="M43.3333 60.6667C40.4 60.6667 38 58.2667 38 55.3333C38 52.4 40.4 50 43.3333 50C46.2667 50 48.6667 52.4 48.6667 55.3333C48.6667 58.2667 46.2667 60.6667 43.3333 60.6667ZM43.3333 54C42.5867 54 42 54.5867 42 55.3333C42 56.08 42.5867 56.6667 43.3333 56.6667C44.08 56.6667 44.6667 56.08 44.6667 55.3333C44.6667 54.5867 44.08 54 43.3333 54Z" fill="#F48809"/>
<path d="M22 60.6667C19.0667 60.6667 16.6667 58.2667 16.6667 55.3333C16.6667 52.4 19.0667 50 22 50C24.9334 50 27.3334 52.4 27.3334 55.3333C27.3334 58.2667 24.9334 60.6667 22 60.6667ZM22 54C21.2534 54 20.6667 54.5867 20.6667 55.3333C20.6667 56.08 21.2534 56.6667 22 56.6667C22.7467 56.6667 23.3334 56.08 23.3334 55.3333C23.3334 54.5867 22.7467 54 22 54Z" fill="#F48809"/>
<path d="M56 23.3334H24C22.9067 23.3334 22 22.4267 22 21.3334C22 20.24 22.9067 19.3334 24 19.3334H56C57.0933 19.3334 58 20.24 58 21.3334C58 22.4267 57.0933 23.3334 56 23.3334Z" fill="#F48809"/>
</svg>
