<svg width="64" height="64" viewBox="0 0 64 64" fill="none" xmlns="http://www.w3.org/2000/svg">
<path d="M32 60.6666C28.9867 60.6666 26.1066 59.7866 23.9466 58.16L12.48 49.6C9.43998 47.3333 7.06665 42.6133 7.06665 38.8266V18.9866C7.06665 14.88 10.08 10.5066 13.9467 9.06663L27.2533 4.07997C29.8933 3.0933 34.0533 3.0933 36.6933 4.07997L50.0267 9.06663C53.8933 10.5066 56.9067 14.88 56.9067 18.9866V28.1333C56.9067 29.2266 56 30.1333 54.9067 30.1333C53.8133 30.1333 52.9067 29.2266 52.9067 28.1333V18.9866C52.9067 16.56 50.9067 13.68 48.6133 12.8L35.3067 7.8133C33.5467 7.14663 30.4267 7.14663 28.6667 7.8133L15.36 12.8266C13.0667 13.68 11.0667 16.56 11.0667 19.0133V38.8266C11.0667 41.36 12.8533 44.9066 14.8533 46.4L26.32 54.96C27.7867 56.0533 29.84 56.6666 31.9733 56.6666C33.0667 56.6666 33.9733 57.5733 33.9733 58.6666C33.9733 59.76 33.0933 60.6666 32 60.6666Z" fill="#F48809"/>
<path d="M42.6667 55.3333C35.68 55.3333 30 49.6533 30 42.6667C30 35.68 35.68 30 42.6667 30C49.6533 30 55.3333 35.68 55.3333 42.6667C55.3333 49.6533 49.6533 55.3333 42.6667 55.3333ZM42.6667 34.0267C37.8933 34.0267 34 37.92 34 42.6933C34 47.4667 37.8933 51.36 42.6667 51.36C47.44 51.36 51.3333 47.4667 51.3333 42.6933C51.3333 37.92 47.44 34.0267 42.6667 34.0267Z" fill="#F48809"/>
<path d="M56 58.6667C55.8134 58.6667 55.6534 58.64 55.4667 58.6134C55.3067 58.5867 55.1467 58.5334 54.9867 58.4534C54.8267 58.4 54.6667 58.32 54.5067 58.2134C54.3734 58.1067 54.24 58 54.1067 57.8934C53.6267 57.3867 53.3334 56.6934 53.3334 56C53.3334 55.6534 53.4134 55.3067 53.5467 54.9867C53.68 54.6667 53.8667 54.3734 54.1067 54.1067C55.0934 53.12 56.9067 53.12 57.8934 54.1067C58.1334 54.3734 58.32 54.6667 58.4534 54.9867C58.5867 55.3067 58.6667 55.6534 58.6667 56C58.6667 56.6934 58.3734 57.3867 57.8934 57.8934C57.3867 58.3734 56.6934 58.6667 56 58.6667Z" fill="#F48809"/>
</svg>
