<svg width="64" height="64" viewBox="0 0 64 64" fill="none" xmlns="http://www.w3.org/2000/svg">
<path d="M32 60.6666C30.1333 60.6666 28.24 59.9465 26.8267 58.5332L22.2667 54.0267C21.12 52.9067 19.6267 52.2933 18.0267 52.2933H16C10.48 52.2933 6 47.84 6 42.3733V13.2799C6 7.81324 10.48 3.35999 16 3.35999H48C53.52 3.35999 58 7.81324 58 13.2799V42.3733C58 47.84 53.52 52.2933 48 52.2933H45.9733C44.3733 52.2933 42.8533 52.9067 41.7333 54.0267L37.1733 58.5332C35.76 59.9465 33.8667 60.6666 32 60.6666ZM16 7.33329C12.6933 7.33329 10 9.99988 10 13.2532V42.3466C10 45.6266 12.6933 48.2666 16 48.2666H18.0267C20.6933 48.2666 23.2 49.3065 25.0933 51.1731L29.6533 55.68C30.96 56.96 33.0667 56.96 34.3733 55.68L38.9334 51.1731C40.8267 49.3065 43.3333 48.2666 46 48.2666H48C51.3067 48.2666 54 45.6 54 42.3466V13.2532C54 9.97321 51.3067 7.33329 48 7.33329H16Z" fill="#F48809"/>
<path d="M27.6806 38.6933H20.5339C19.3606 38.6933 18.2673 38.1331 17.5739 37.1731C16.9073 36.2665 16.7473 35.1467 17.0673 34.08C18.0006 31.2267 20.2939 29.6799 22.3206 28.2933C24.4539 26.8533 25.6539 25.9467 25.6539 24.4C25.6539 23.0134 24.5339 21.8932 23.1473 21.8932C21.7606 21.8932 20.6406 23.0134 20.6406 24.4C20.6406 25.4934 19.734 26.4 18.6406 26.4C17.5473 26.4 16.6406 25.4934 16.6406 24.4C16.6406 20.8267 19.5473 17.8932 23.1473 17.8932C26.7473 17.8932 29.6539 20.8 29.6539 24.4C29.6539 28.16 26.8273 30.0799 24.5606 31.6266C23.1473 32.5866 21.8139 33.4933 21.1473 34.6933H27.6539C28.7473 34.6933 29.6539 35.6 29.6539 36.6933C29.6539 37.7867 28.774 38.6933 27.6806 38.6933Z" fill="#F48809"/>
<path d="M42.7729 38.6935C41.6796 38.6935 40.7729 37.7868 40.7729 36.6935V34.8533H35.5463C35.5463 34.8533 35.5463 34.8533 35.5197 34.8533C34.213 34.8533 33.013 34.1602 32.3463 33.0402C31.6796 31.8935 31.6796 30.4801 32.3463 29.3601C34.1596 26.2401 36.2663 22.6934 38.1863 19.6C39.0397 18.24 40.6663 17.6268 42.1863 18.0535C43.7063 18.5068 44.773 19.8936 44.7463 21.4936V30.88H45.333C46.4263 30.88 47.333 31.7867 47.333 32.88C47.333 33.9733 46.4263 34.88 45.333 34.88H44.7729V36.7202C44.7729 37.8135 43.8929 38.6935 42.7729 38.6935ZM40.7729 23.0402C39.1996 25.6002 37.5729 28.3466 36.1063 30.8533H40.7729V23.0402Z" fill="#F48809"/>
</svg>
