<svg width="14" height="14" viewBox="0 0 14 14" fill="none" xmlns="http://www.w3.org/2000/svg">
<path fill-rule="evenodd" clip-rule="evenodd" d="M13.9995 11.2941V5.56302V2.70541C13.9995 1.21314 12.7859 0 11.2936 0H2.70541C1.21314 0 0 1.21314 0 2.70541V5.56302V11.2941C0 12.7869 1.21314 14 2.70541 14H11.2941C12.7859 14 13.9995 12.7869 13.9995 11.2941ZM9.46422 6.99926C9.46422 8.35816 8.35717 9.46322 6.99926 9.46322C5.64085 9.46322 4.53479 8.35766 4.53628 6.99876C4.53678 6.46234 4.71079 5.96707 5.0023 5.56252C5.45097 4.94182 6.17826 4.53529 7.00074 4.53529C7.82273 4.53529 8.55052 4.94231 8.99819 5.56302C9.28871 5.96756 9.46422 6.46283 9.46422 6.99926ZM12.3798 3.98499V1.91961V1.61224L12.071 1.61323L10.0066 1.61967L10.0145 3.99292L12.3798 3.98499ZM6.99975 10.8281C9.11123 10.8281 10.8286 9.10974 10.8286 6.99926C10.8286 6.49159 10.7259 6.00623 10.544 5.56302H12.6347V11.2941C12.6347 12.0348 12.0323 12.6347 11.2931 12.6347H2.70491C1.96473 12.6347 1.36336 12.0348 1.36336 11.2941V5.56302H3.45303C3.27257 6.00623 3.17143 6.49159 3.17143 6.99926C3.17143 9.10974 4.88827 10.8281 6.99975 10.8281Z" fill="black"/>
</svg>
