<svg width="64" height="64" viewBox="0 0 64 64" fill="none" xmlns="http://www.w3.org/2000/svg">
<path d="M22.8807 60.1335C22.294 60.1335 21.6807 60.0269 21.1207 59.7869C19.8673 59.2535 18.9073 58.2135 18.4807 56.9069L17.3073 53.3869C16.774 51.7869 17.254 49.7868 18.4273 48.5868L24.4807 42.5068C24.5607 42.4268 24.6673 42.1335 24.6673 42.0002V35.4135L12.5073 40.6669C10.8807 41.3602 9.22733 41.2802 7.974 40.4535C6.72067 39.6269 5.974 38.1335 5.974 36.4002V32.9602C5.974 30.3468 7.84067 27.5468 10.214 26.6135L24.6407 20.3735V12.8002C24.6407 9.57352 26.9073 5.86685 29.7873 4.37352C31.174 3.68018 32.774 3.68018 34.134 4.37352C37.0407 5.86685 39.3073 9.54685 39.3073 12.7735V20.3468L53.814 26.5869C56.1873 27.6002 58.0007 30.3202 58.0007 32.9602V36.4002C58.0007 38.1602 57.2807 39.6269 56.0007 40.4535C54.7207 41.2802 53.094 41.3602 51.4673 40.6935L39.3073 35.4402V42.0269C39.3073 42.1335 39.414 42.4002 39.494 42.4802L45.574 48.5868C46.7473 49.7602 47.2273 51.8135 46.694 53.3869L45.5207 56.9069C45.0673 58.2135 44.1073 59.2535 42.8273 59.7602C41.574 60.2669 40.1873 60.2135 38.9873 59.6269C38.854 59.5469 38.7207 59.4669 38.5873 59.3602L32.374 54.1335C32.1607 53.9468 31.734 53.9735 31.5473 54.1335L25.334 59.3602C25.2273 59.4669 25.094 59.5469 24.9607 59.6002C24.3207 59.9735 23.6007 60.1335 22.8807 60.1335ZM25.494 31.0402C26.1073 31.0402 26.694 31.2002 27.2007 31.5469C28.134 32.1602 28.6673 33.2002 28.6673 34.4269V42.0269C28.6673 43.1735 28.1073 44.5335 27.3073 45.3335L21.254 51.4135C21.1473 51.5469 21.0407 51.9469 21.094 52.1069L22.2673 55.6535C22.3473 55.9202 22.534 56.0269 22.6407 56.0802C22.7207 56.1069 22.854 56.1602 23.014 56.1069L28.9873 51.0669C30.6673 49.6269 33.3073 49.6269 34.9873 51.0669L40.934 56.0802C41.1207 56.1069 41.254 56.0802 41.334 56.0535C41.4407 56.0002 41.654 55.8935 41.734 55.6269L42.9073 52.1069C42.9607 51.9202 42.854 51.5202 42.7473 51.4135L36.694 45.3335C35.894 44.5869 35.3073 43.2002 35.3073 42.0269V34.4269C35.3073 33.2269 35.814 32.1869 36.7207 31.5735C37.6273 30.9602 38.8007 30.8802 39.9207 31.3602L53.0407 37.0135C53.4407 37.1735 53.7073 37.1735 53.7873 37.1202C53.8673 37.0669 53.974 36.8268 53.974 36.4002V32.9602C53.974 31.9468 53.1207 30.6402 52.214 30.2669L37.334 23.8402C36.1607 23.3335 35.334 22.0535 35.334 20.7735V12.7735C35.334 11.0135 33.9473 8.74685 32.3473 7.94685C32.134 7.84018 31.8673 7.84018 31.6273 7.94685C30.0807 8.74685 28.6673 11.0668 28.6673 12.8002V20.8002C28.6673 22.0535 27.8407 23.3602 26.6673 23.8668L11.7873 30.2935C10.854 30.6668 10.0007 31.9735 10.0007 32.9602V36.4002C10.0007 36.8268 10.1073 37.0669 10.1873 37.1202C10.2673 37.1735 10.534 37.1735 10.934 37.0135L24.0273 31.3602C24.5073 31.1469 25.014 31.0402 25.494 31.0402Z" fill="#F48809"/>
</svg>
