<svg width="28" height="28" viewBox="0 0 28 28" fill="none" xmlns="http://www.w3.org/2000/svg">
<path d="M14 0.833333C6.58248 0.833333 0.583313 6.8325 0.583313 14.25C0.583313 17.0292 1.40748 19.5783 2.82581 21.7058C4.89581 24.7725 8.17331 26.9383 11.9875 27.4942C12.6391 27.6092 13.31 27.6667 14 27.6667C14.69 27.6667 15.3608 27.6092 16.0125 27.4942C19.8266 26.9383 23.1041 24.7725 25.1741 21.7058C26.5925 19.5783 27.4166 17.0292 27.4166 14.25C27.4166 6.8325 21.4175 0.833333 14 0.833333ZM19.865 13.8283L18.2741 15.4192C18.0058 15.6875 17.8525 16.205 17.9483 16.5883L18.4083 18.5625C18.7725 20.115 17.9483 20.7283 16.5683 19.9042L14.6516 18.7733C14.3066 18.5625 13.7316 18.5625 13.3866 18.7733L11.47 19.9042C10.09 20.7092 9.26581 20.115 9.62998 18.5625L10.09 16.5883C10.1666 16.2242 10.0325 15.6875 9.76415 15.4192L8.13498 13.8283C7.19581 12.8892 7.50248 11.95 8.80581 11.7392L10.8566 11.3942C11.2016 11.3367 11.6041 11.03 11.7575 10.7233L12.8883 8.46167C13.5016 7.235 14.4983 7.235 15.1116 8.46167L16.2425 10.7233C16.3958 11.03 16.7983 11.3367 17.1625 11.3942L19.2133 11.7392C20.4975 11.95 20.8041 12.8892 19.865 13.8283Z" fill="#757575"/>
</svg>
