<svg width="64" height="64" viewBox="0 0 64 64" fill="none" xmlns="http://www.w3.org/2000/svg">
<path d="M45.3334 56.6667H18.6667C8.93337 56.6667 3.33337 51.0667 3.33337 41.3334V22.6667C3.33337 12.9334 8.93337 7.33337 18.6667 7.33337H45.3334C55.0667 7.33337 60.6667 12.9334 60.6667 22.6667V41.3334C60.6667 51.0667 55.0667 56.6667 45.3334 56.6667ZM18.6667 11.3334C11.04 11.3334 7.33337 15.04 7.33337 22.6667V41.3334C7.33337 48.96 11.04 52.6667 18.6667 52.6667H45.3334C52.96 52.6667 56.6667 48.96 56.6667 41.3334V22.6667C56.6667 15.04 52.96 11.3334 45.3334 11.3334H18.6667Z" fill="#F48809"/>
<path d="M16 44.6667C14.9067 44.6667 14 43.76 14 42.6667V21.3334C14 20.24 14.9067 19.3334 16 19.3334C17.0933 19.3334 18 20.24 18 21.3334V42.6667C18 43.76 17.0933 44.6667 16 44.6667Z" fill="#F48809"/>
<path d="M24 34C22.9067 34 22 33.0934 22 32V21.3334C22 20.24 22.9067 19.3334 24 19.3334C25.0933 19.3334 26 20.24 26 21.3334V32C26 33.0934 25.0933 34 24 34Z" fill="#F48809"/>
<path d="M24 44.6667C22.9067 44.6667 22 43.76 22 42.6667V40C22 38.9067 22.9067 38 24 38C25.0933 38 26 38.9067 26 40V42.6667C26 43.76 25.0933 44.6667 24 44.6667Z" fill="#F48809"/>
<path d="M40 26C38.9067 26 38 25.0934 38 24V21.3334C38 20.24 38.9067 19.3334 40 19.3334C41.0933 19.3334 42 20.24 42 21.3334V24C42 25.0934 41.0933 26 40 26Z" fill="#292D32"/>
<path d="M32 44.6667C30.9067 44.6667 30 43.76 30 42.6667V21.3334C30 20.24 30.9067 19.3334 32 19.3334C33.0933 19.3334 34 20.24 34 21.3334V42.6667C34 43.76 33.0933 44.6667 32 44.6667Z" fill="#292D32"/>
<path d="M40 44.6667C38.9067 44.6667 38 43.76 38 42.6667V32C38 30.9067 38.9067 30 40 30C41.0933 30 42 30.9067 42 32V42.6667C42 43.76 41.0933 44.6667 40 44.6667Z" fill="#292D32"/>
<path d="M48 44.6667C46.9067 44.6667 46 43.76 46 42.6667V21.3334C46 20.24 46.9067 19.3334 48 19.3334C49.0933 19.3334 50 20.24 50 21.3334V42.6667C50 43.76 49.0933 44.6667 48 44.6667Z" fill="#292D32"/>
</svg>
