<svg width="46" height="46" viewBox="0 0 46 46" fill="none" xmlns="http://www.w3.org/2000/svg">
<path d="M40.7291 35.4008L37.5666 36.1483C36.8575 36.3208 36.3016 36.8575 36.1483 37.5667L35.4775 40.3842C35.1133 41.9175 33.1583 42.3967 32.1425 41.1892L26.4116 34.5958C25.9516 34.0592 26.2008 33.2158 26.8908 33.0433C30.2833 32.2192 33.3308 30.3217 35.5733 27.6192C35.9375 27.1783 36.5891 27.1208 36.9916 27.5233L41.2466 31.7783C42.7033 33.235 42.1858 35.0558 40.7291 35.4008Z" fill="#757575"/>
<path d="M5.17501 35.4008L8.33751 36.1483C9.04667 36.3208 9.60251 36.8575 9.75584 37.5667L10.4267 40.3842C10.7908 41.9175 12.7458 42.3967 13.7617 41.1892L19.4925 34.5958C19.9525 34.0592 19.7033 33.2158 19.0133 33.0433C15.6208 32.2192 12.5733 30.3217 10.3308 27.6192C9.96667 27.1783 9.31501 27.1208 8.91251 27.5233L4.65751 31.7783C3.20084 33.235 3.71834 35.0558 5.17501 35.4008Z" fill="#757575"/>
<path d="M23 3.83333C15.5825 3.83333 9.58331 9.8325 9.58331 17.25C9.58331 20.0292 10.4075 22.5783 11.8258 24.7058C13.8958 27.7725 17.1733 29.9383 20.9875 30.4942C21.6391 30.6092 22.31 30.6667 23 30.6667C23.69 30.6667 24.3608 30.6092 25.0125 30.4942C28.8266 29.9383 32.1041 27.7725 34.1741 24.7058C35.5925 22.5783 36.4166 20.0292 36.4166 17.25C36.4166 9.8325 30.4175 3.83333 23 3.83333ZM28.865 16.8283L27.2741 18.4192C27.0058 18.6875 26.8525 19.205 26.9483 19.5883L27.4083 21.5625C27.7725 23.115 26.9483 23.7283 25.5683 22.9042L23.6516 21.7733C23.3066 21.5625 22.7316 21.5625 22.3866 21.7733L20.47 22.9042C19.09 23.7092 18.2658 23.115 18.63 21.5625L19.09 19.5883C19.1666 19.2242 19.0325 18.6875 18.7641 18.4192L17.135 16.8283C16.1958 15.8892 16.5025 14.95 17.8058 14.7392L19.8566 14.3942C20.2016 14.3367 20.6041 14.03 20.7575 13.7233L21.8883 11.4617C22.5016 10.235 23.4983 10.235 24.1116 11.4617L25.2425 13.7233C25.3958 14.03 25.7983 14.3367 26.1625 14.3942L28.2133 14.7392C29.4975 14.95 29.8041 15.8892 28.865 16.8283Z" fill="#757575"/>
</svg>
